<svg xmlns="http://www.w3.org/2000/svg" xmlns:xlink="http://www.w3.org/1999/xlink" width="500" zoomAndPan="magnify" viewBox="0 0 375 374.999991" height="500" preserveAspectRatio="xMidYMid meet" version="1.0"><defs><g/></defs><g fill="#592e83" fill-opacity="1"><g transform="translate(221.624433, 283.74049)"><g><path d="M 31.882812 -119.199219 C 47.105469 -79.5625 124.65625 -132.125 124.65625 -74.105469 L 124.65625 0 L 147.058594 0 L 147.058594 -202.78125 L 124.65625 -202.78125 L 124.65625 -89.613281 C 110.007812 -129.539062 31.882812 -76.113281 31.882812 -134.996094 L 31.882812 -202.78125 L 10.054688 -202.78125 L 10.054688 0 L 31.882812 0 Z M 31.882812 -119.199219 "/></g></g></g><g fill="#592e83" fill-opacity="1"><g transform="translate(4.625168, 284.039931)"><g><path d="M 180.234375 -41.730469 C 180.234375 -10.359375 174.019531 -2.070312 161.292969 -2.664062 L 161.292969 0 L 227.289062 0 L 227.289062 -2.664062 C 214.5625 -2.070312 208.347656 -10.359375 208.347656 -41.730469 L 208.347656 -160.40625 C 208.347656 -191.777344 214.5625 -200.359375 227.289062 -199.765625 L 227.289062 -202.429688 L 180.234375 -202.429688 L 111.871094 -7.398438 L 44.097656 -202.429688 L 0 -202.429688 L 0 -199.765625 C 12.726562 -200.359375 18.941406 -191.777344 18.941406 -160.40625 L 18.941406 -41.730469 C 18.941406 -10.359375 12.726562 -2.070312 0 -2.664062 L 0 0 L 43.207031 0 L 43.207031 -2.664062 C 30.484375 -2.070312 24.269531 -10.359375 24.269531 -41.730469 L 24.269531 -173.425781 L 84.640625 0 L 114.828125 0 L 180.234375 -186.449219 Z M 180.234375 -41.730469 "/></g></g></g></svg>